<svg version="1.1" xmlns="http://www.w3.org/2000/svg" xmlns:xlink="http://www.w3.org/1999/xlink" x="0px" y="0px" width="100%" height="100%" viewBox="0 0 304 352" preserveAspectRatio="xMidYMid meet" fill="currentColor">
<path d="M186.069092,315.725922 C185.175369,308.007477 184.419739,300.627258 183.664124,293.247070 C183.329315,293.196289 182.994492,293.145538 182.659683,293.094788 C179.623901,299.425232 176.588120,305.755646 173.375595,312.454590 C170.673798,311.128876 167.504898,311.099335 166.910019,306.988800 C164.265533,313.678528 163.984589,320.213165 164.632309,326.883484 C165.278793,333.541016 168.463074,339.498505 170.147461,345.870972 C163.911621,347.471100 158.900497,345.501617 155.262619,340.245239 C151.980148,335.502411 150.491867,330.022797 148.849808,324.602417 C148.372025,323.025330 148.172577,321.012909 147.091614,320.024872 C138.194351,311.892456 134.415359,300.445953 127.329765,290.582275 C125.281471,299.303986 126.110718,308.345581 123.573524,317.963379 C117.598648,299.587463 117.129364,281.449066 116.285736,263.028229 C113.083580,264.263000 113.253784,267.302856 110.205345,268.173370 C109.437912,260.962494 107.453316,254.086746 105.747147,247.143402 C105.105507,244.532211 104.600220,241.867996 103.174706,239.637878 C97.515282,230.783920 96.511841,221.359589 99.329430,211.400177 C100.189262,208.360916 99.535988,206.448334 96.280838,205.249146 C92.223488,203.754440 90.368126,199.989838 88.817360,196.283630 C84.235725,185.333984 82.921310,174.120483 86.934059,162.701218 C88.199524,159.100006 86.784622,157.676132 83.447731,157.346680 C80.045479,157.010757 76.526276,157.292938 73.497841,155.595749 C73.124458,153.383621 75.394737,152.682068 75.529030,150.476730 C68.061470,149.290833 60.289093,150.460052 52.927628,148.308517 C45.661835,146.184952 38.433609,143.932846 30.859739,141.637375 C32.248611,138.576447 34.587513,137.775543 36.429825,136.563187 C60.932976,120.438644 85.121948,103.885986 107.250809,84.540924 C112.639091,79.830490 117.657188,74.698563 122.997238,69.930382 C127.340584,66.052170 128.769592,60.720318 130.757202,55.627151 C131.704269,53.200306 130.268585,52.216351 128.351334,51.642368 C125.599289,50.818470 122.755798,50.762524 119.928452,51.150036 C116.946907,51.558678 115.560692,50.425060 115.662094,47.345932 C115.760727,44.350594 115.658958,41.348988 115.663948,38.350166 C115.675148,31.621109 116.724586,30.608652 123.429733,30.847872 C124.568619,30.888504 125.706055,30.969946 127.051720,31.043947 C129.260803,25.720572 131.457550,20.520205 134.605438,15.799438 C140.265396,7.311437 144.214050,7.109142 150.544281,15.227571 C152.482071,17.712755 154.054581,20.484430 155.771454,23.139719 C157.471527,25.769009 158.211197,28.962740 160.333618,31.230249 C162.271042,31.573219 163.184555,30.154428 164.389694,29.369678 C170.575409,25.341696 177.253036,23.233284 184.720291,23.843620 C188.245758,24.131773 189.795807,25.697670 189.282562,29.334862 C188.517105,34.759449 187.923874,40.208393 187.262283,45.647568 C186.858459,48.967365 185.660828,51.011440 181.716690,49.741604 C180.368454,49.307529 178.713501,49.389793 177.295258,49.690929 C172.960327,50.611359 171.780792,53.543404 174.619278,56.918251 C177.490036,60.331451 179.561417,64.013786 180.321472,68.384338 C180.669968,70.388268 182.042053,71.564568 183.404114,72.773499 C210.753525,97.048271 239.387634,119.547127 271.875641,136.713455 C272.607483,137.100128 273.340149,137.514679 273.983459,138.027740 C274.341553,138.313309 274.515656,138.829590 274.752686,139.209808 C274.278412,140.935059 272.807831,141.488434 271.547150,142.225800 C265.940918,145.504745 260.261353,148.662506 254.723358,152.052094 C252.137360,153.634888 249.891418,154.139313 247.589310,151.738007 C245.476059,149.533691 243.036163,149.456207 240.284409,150.503647 C236.864059,151.805573 233.379883,152.951263 229.886261,154.046341 C225.582031,155.395508 224.644379,158.334351 225.992538,162.235962 C229.756042,173.127594 228.927399,183.903091 225.091827,194.527222 C223.566559,198.752045 221.642395,202.946854 217.379745,205.237198 C215.100693,206.461761 215.104019,208.451172 215.392197,210.403656 C216.959213,221.020920 214.631668,230.599564 209.577332,240.125671 C206.300400,246.301849 205.073425,253.593643 204.246674,260.718536 C204.000702,262.838287 203.514832,264.930206 203.107178,267.212311 C200.290802,266.793182 200.221664,263.804108 197.896271,262.798645 C195.835709,268.103607 192.802628,272.770233 193.206558,278.977173 C194.014984,291.399902 190.139236,303.310760 188.197540,315.432251 C187.990143,316.726959 187.282669,317.150940 186.069092,315.725922 M94.581398,118.034630 C92.176689,118.014198 90.411560,118.947327 89.540771,121.314362 C86.592552,129.328293 86.201271,137.001328 93.029633,143.383820 C95.935738,146.100174 99.311195,148.307846 102.315132,150.928085 C104.881134,153.166336 106.668304,152.417267 108.536118,150.035828 C110.081718,148.065186 111.268349,145.621887 114.208138,144.456024 C114.208138,146.572891 114.250282,148.212234 114.196480,149.848419 C114.140755,151.543121 114.731056,153.026062 116.409790,153.295914 C120.166794,153.899887 123.909630,154.659485 126.505615,150.317444 C128.376602,147.188049 129.939240,143.595535 133.981827,141.283615 C133.344574,147.648224 129.395233,152.474213 129.110489,158.205673 C138.047485,158.205673 146.765228,158.200958 155.482956,158.207962 C159.027618,158.210815 159.959763,156.234161 159.776123,153.019424 C159.583939,149.655075 159.733170,146.271194 159.733170,142.895859 C161.651581,144.774704 162.539047,146.842117 163.379745,148.928360 C166.182831,155.884430 166.162048,155.720016 173.493179,155.089676 C176.610413,154.821655 178.044006,153.761917 177.993271,150.577240 C177.972672,149.285095 177.428192,147.497330 179.641144,146.875031 C181.889038,150.487518 182.183304,154.761383 183.780853,158.564377 C184.792892,160.973557 186.015793,162.024979 188.699997,161.179749 C195.364243,159.081268 202.129181,157.290054 208.743561,155.050232 C213.027145,153.599716 213.259308,151.683960 210.371933,147.963623 C209.073990,146.291229 206.772034,145.181076 206.572723,142.535538 C208.683289,142.462463 209.757156,143.630417 210.993790,144.421631 C215.433731,147.262314 216.367889,146.977844 218.079193,142.123154 C220.442291,135.419403 220.694336,128.701279 217.574860,122.197899 C216.483459,119.922615 216.630676,118.383148 218.143188,116.366859 C220.603516,113.087105 220.172623,109.278030 217.144669,106.913467 C206.856384,98.879272 198.123367,88.516312 185.019867,84.571877 C181.736755,83.583595 180.316086,81.870209 179.844940,78.312691 C178.918045,71.314041 172.493408,67.159813 165.634689,67.869438 C158.527008,68.604828 151.365326,69.071320 144.222443,69.137352 C137.912445,69.195671 132.177856,69.875343 127.059235,74.277809 C124.076828,76.842941 123.251251,79.011749 125.069687,82.350739 C128.037704,87.800591 127.509773,89.671486 121.931427,92.473022 C115.524559,95.690628 111.380508,101.474709 108.564995,107.315125 C105.585495,113.495712 101.478355,116.530754 94.581398,118.034630 M118.435341,157.082916 C116.119049,156.849396 113.799156,156.646027 111.487862,156.370590 C110.183754,156.215164 109.114326,156.014557 107.818291,157.031036 C102.934128,160.861740 100.052017,165.318695 101.214134,171.887375 C101.964371,176.127960 101.801086,180.536865 102.633141,184.754761 C104.105034,192.216171 106.334290,199.871811 113.533913,203.508942 C116.973862,205.246765 118.015930,207.152649 118.835800,210.248184 C119.240005,211.774292 118.685074,213.657562 120.429962,215.036957 C123.576279,213.256058 124.665886,209.118301 128.340179,207.899490 C133.580215,206.161285 137.716507,203.095428 140.188721,197.954208 C140.726791,196.835205 141.873596,195.813339 142.989960,195.206512 C145.784760,193.687332 148.159302,194.901382 148.813828,198.061295 C148.333649,198.087524 147.778610,198.292374 147.425537,198.108810 C145.110168,196.904938 144.042694,198.313293 143.130981,200.070908 C142.494186,201.298523 141.985504,202.568085 143.325668,203.674316 C144.972229,205.033447 146.506653,203.963486 147.971680,203.292816 C150.701202,202.043289 153.382217,200.418716 156.502518,200.978149 C159.439514,201.504684 162.291122,202.492218 165.200928,203.190979 C167.199356,203.670898 169.093552,203.302109 169.451614,200.995361 C169.747391,199.090073 168.903870,197.039078 166.745544,196.936661 C162.937027,196.755920 164.790390,194.530777 164.529617,192.699188 C171.946823,193.453094 171.655243,201.343735 176.289139,204.220581 C181.040253,207.170181 186.367767,209.305557 189.334000,215.681702 C190.329361,212.190735 190.898178,209.948166 191.619400,207.755768 C192.078278,206.360916 192.603806,205.064713 194.198273,204.319778 C201.816788,200.760498 207.043457,194.680664 209.421860,186.876053 C212.215622,177.708496 213.284897,168.200592 209.295517,158.677811 C203.754578,160.493073 198.008545,161.363403 193.078430,163.957153 C192.970123,166.202606 195.790344,166.632721 194.913376,168.816452 C193.021790,169.695892 190.564529,168.428482 188.671295,170.337326 C191.299591,171.230942 194.238464,171.462143 195.573227,174.395157 C187.535400,178.536072 178.803787,176.764236 170.235046,177.841736 C170.235046,179.309128 170.240036,180.271835 170.233719,181.234467 C170.226746,182.296326 170.012421,183.276947 168.766800,183.479263 C167.501053,183.684860 166.367020,183.308929 165.929413,182.018097 C164.159622,176.797607 163.316818,171.421890 162.604980,165.598694 C165.525833,166.447708 165.343460,170.381744 168.187042,169.442749 C172.701523,167.951981 177.678757,168.090622 181.915329,165.787125 C180.566223,158.478821 180.579834,158.692978 173.938080,159.115173 C168.407608,159.466721 162.956223,160.056808 157.554550,161.306900 C149.883041,163.082275 141.982681,161.800842 134.224716,162.917633 C130.961273,163.387405 127.380928,164.011017 124.431938,162.545563 C123.323288,160.395538 125.234795,159.011429 124.679825,157.096558 C122.899788,157.096558 121.081299,157.096558 118.435341,157.082916 M179.921967,277.337341 C179.921967,270.834717 179.921967,264.332123 179.921967,257.787201 C182.050812,258.233521 181.192245,260.754486 182.708237,261.544830 C181.804352,248.337891 179.333328,237.864151 175.917526,234.058945 C172.501068,238.966629 169.091553,243.949234 162.518051,244.857666 C158.966812,239.619766 156.978592,239.774139 149.783813,246.016281 C145.145142,244.229248 140.913620,242.069489 138.726929,237.327286 C137.934723,235.609253 136.693192,234.227753 134.454803,234.647995 C132.130722,235.084335 131.906647,237.103683 131.520309,238.830307 C130.468094,243.532776 129.553619,248.266312 128.605042,252.991653 C126.891708,261.526733 127.088707,270.111359 127.876099,278.737335 C129.137650,273.203735 128.080322,267.190125 132.242798,260.797363 C132.138901,271.937897 128.720673,282.037231 134.304947,291.723572 C137.063736,288.167145 133.864578,283.653046 137.624588,280.556580 C140.482040,288.470154 139.654251,296.827057 143.435104,304.005707 C143.470795,289.860168 143.470795,289.860168 145.991806,287.157593 C146.497375,289.267456 147.005508,291.167267 147.404037,293.089752 C149.054718,301.052643 149.738556,309.205200 152.047638,317.036774 C152.642151,319.053192 152.979095,321.600677 155.986130,321.274811 C158.749725,320.975342 159.041367,318.605560 159.487411,316.463104 C160.909897,309.630585 162.114594,302.741455 163.852722,295.989868 C164.987946,291.580231 165.608795,286.897247 168.503571,282.569153 C171.743851,286.604797 167.852798,291.469269 170.558441,295.864441 C173.245377,289.844574 173.589096,283.995331 176.207657,278.591156 C176.207657,283.006439 176.207657,287.421722 176.207657,291.837036 C178.645020,287.471649 179.819153,283.003021 179.921967,277.337341 M195.143906,253.105576 C196.044739,249.244919 197.927383,250.381653 199.961639,252.809723 C201.831696,247.597885 204.281921,243.110275 200.994507,238.105438 C199.909058,236.452957 200.859360,234.593231 201.854828,233.475113 C205.562927,229.310165 207.900665,224.885086 205.593536,219.470215 C207.655792,218.267471 208.495224,221.297760 210.629150,219.271454 C211.895782,211.706329 209.254181,203.857788 209.377243,195.472824 C202.394424,199.577835 201.965744,208.684723 194.148239,212.337357 C194.148239,219.464569 194.148239,227.398117 194.148239,235.679092 C192.285904,234.134048 190.595871,232.731964 188.905838,231.329865 C188.512024,231.486923 188.118210,231.643982 187.724396,231.801041 C191.327484,241.218475 191.409790,251.115509 192.119659,260.931641 C193.771957,258.625824 194.711792,256.333374 195.143906,253.105576 M168.210236,207.566116 C166.414948,208.365860 164.619659,209.165604 162.130753,210.274323 C164.997238,211.571579 167.226898,212.561234 169.439865,213.586884 C172.411285,214.964050 174.152618,216.700562 175.643356,220.239624 C181.345535,233.776810 183.545547,247.959503 185.399826,262.280853 C186.453430,270.418121 187.197647,278.595459 188.081192,286.754730 C189.351868,272.429474 188.422897,258.256775 185.663742,243.598206 C187.085236,244.394012 187.774414,244.779831 188.296463,245.072098 C187.694397,236.230377 182.501144,228.208389 184.265686,219.622574 C185.922852,218.227921 186.773499,220.201309 188.262985,219.327759 C187.134949,217.497192 186.144943,215.591904 184.878479,213.892670 C181.399033,209.224274 173.397675,205.986145 168.210236,207.566116 M124.044044,247.763824 C121.636566,260.319794 121.822693,272.974213 122.195595,285.634064 C122.940941,282.351501 123.434601,279.064911 123.667305,275.759918 C124.872932,258.636841 127.209297,241.723450 132.786484,225.397018 C135.016876,218.867828 138.037674,213.061874 145.656403,211.441864 C146.418533,211.279800 147.771957,211.242538 147.663010,210.129684 C139.926544,204.398575 133.139236,207.177353 126.797394,212.233521 C124.768158,213.851364 123.525986,216.286133 123.011848,218.908859 C124.137421,219.586761 125.259064,218.349731 126.015800,219.469299 C126.484856,221.400238 124.036522,221.933304 123.958519,223.627365 C124.991905,223.894882 125.682014,222.376312 127.303589,223.623718 C124.459961,230.725128 124.123428,238.690323 121.307213,246.299530 C123.153740,245.807480 122.270752,243.527191 124.066635,243.324005 C125.000252,244.512070 124.139633,245.802139 124.044044,247.763824 M116.106125,226.822083 C117.534447,217.869476 112.452690,211.153641 108.254501,204.155136 C107.744766,203.305405 107.494362,201.845230 105.656158,202.189102 C105.377960,210.766052 100.464211,218.959213 103.623749,228.139999 C105.084389,225.411453 104.224457,222.032272 107.056313,219.555573 C107.961929,223.119019 105.856346,226.753586 108.216949,229.521210 C111.332939,233.174454 111.242081,237.473206 111.103081,241.791519 C110.975746,245.747772 110.948936,249.375244 116.466118,246.978455 C117.560448,249.176178 117.124069,251.368164 118.789093,253.303101 C118.030952,245.168228 122.124657,238.175079 122.248550,230.452744 C119.916481,231.185333 119.076004,234.239502 116.508148,234.364716 C114.781303,231.848846 119.441902,229.709213 116.106125,226.822083 M161.580872,225.844223 C164.519852,226.234024 166.729507,225.238785 168.068542,222.535263 C158.143021,211.830811 151.844086,211.798080 141.959106,222.599747 C143.772110,225.664352 146.269775,227.251373 149.763336,225.577454 C153.534546,223.770493 157.133286,224.320892 161.580872,225.844223 M158.026260,236.645401 C160.018341,236.733643 162.010712,236.815918 164.002441,236.911438 C167.451645,237.076843 167.451477,237.080276 168.378372,234.205292 C159.696762,232.981644 150.686600,231.665344 141.980469,235.415039 C142.912964,237.814102 144.682251,239.492798 148.429169,237.871338 C151.182297,236.679947 154.138947,236.081512 158.026260,236.645401 M215.780945,165.577240 C214.665100,168.670959 213.484512,171.751007 213.690750,175.677948 C216.044769,171.468246 216.021103,166.080002 221.846725,165.055786 C219.591370,161.531921 217.813080,162.192551 215.780945,165.577240 M94.340416,165.767059 C96.342903,168.096481 97.306572,171.001114 98.607277,174.139572 C99.438843,169.914764 97.667023,166.957062 95.640686,164.104813 C95.139832,163.399811 94.285416,162.974030 93.543777,163.644897 C92.933014,164.197372 93.540367,164.810852 94.340416,165.767059 M142.347214,46.084518 C143.037689,47.589043 144.178162,48.356239 146.256836,48.245537 C146.464050,46.840626 148.046631,45.363552 145.849396,44.088921 C144.255051,43.164032 142.611221,42.790794 142.347214,46.084518 M213.174347,159.707123 C213.428253,161.064667 212.754059,162.692276 214.302521,163.733521 C216.225662,162.849319 215.704254,160.905670 216.233078,159.465424 C216.523117,158.675568 216.399048,157.763168 215.346756,157.519897 C214.140274,157.240952 213.544678,157.968292 215.346756,157.519897 C214.140274,157.240952 213.544678,157.968292 213.174347,159.707123 z"/>
<path d="M118.799774,121.797966 C119.868805,119.955231 120.937828,118.112503 121.958328,116.353416 C119.138428,112.604332 115.882919,115.300346 112.933716,115.677025 C111.805672,110.570183 120.705688,110.444901 117.328568,104.216232 C122.742500,105.667419 123.755089,100.506607 126.725502,98.389763 C128.627609,100.949997 124.866051,103.109138 127.081154,105.279419 C129.991089,105.502228 129.341522,101.845657 131.850769,101.096657 C131.983719,104.427345 134.402298,107.561630 130.414017,110.568840 C128.129288,112.291542 130.743881,113.854660 132.496414,115.450714 C126.714226,115.254448 123.570312,119.150909 119.376343,121.891106 C119.005722,121.997398 118.799782,121.797966 118.799774,121.797966 z"/>
<path d="M191.023849,95.816650 C192.314453,96.507584 193.305527,97.028534 194.350021,97.577553 C193.335907,100.975418 189.605423,100.712997 187.751480,103.215240 C190.600830,107.551445 196.167862,109.145958 199.344269,113.632401 C189.900436,113.694946 175.750183,101.408684 174.965607,92.572350 C179.788330,94.053444 181.497986,103.216194 189.131180,98.044479 C183.762970,94.722061 178.018707,91.925354 177.811859,84.458183 C181.347153,89.171768 185.618881,92.905281 191.023849,95.816650 z"/>
<path d="M119.109879,122.095871 C116.470734,130.719742 110.342773,135.403442 101.787392,137.356949 C107.515884,132.521179 112.531441,126.946602 118.502068,121.933441 C118.799782,121.797966 119.005722,121.997398 119.109879,122.095871 z"/>
<path d="M149.004730,177.709045 C147.904938,180.328140 148.922577,184.419586 144.276642,183.295288 C142.658707,181.855408 144.166245,179.970154 142.980011,177.840607 C135.185638,176.502945 126.261703,178.809540 118.160110,174.234451 C120.010262,171.250046 122.797935,171.072128 125.713768,170.795975 C123.933266,168.247498 120.713974,169.861786 118.507622,168.258987 C119.720520,164.776855 122.213455,164.150604 125.250046,164.806381 C130.445389,165.928329 135.708344,166.865784 140.770081,168.437347 C144.853668,169.705215 148.202499,170.154648 150.527893,164.047577 C151.432556,169.636246 149.444702,173.390457 149.004730,177.709045 z"/>
</svg>
