<svg xmlns="http://www.w3.org/2000/svg" xmlns:xlink="http://www.w3.org/1999/xlink" viewBox="36 22 113 52" preserveAspectRatio="xMidYMid meet" version="1.0"><g fill="#ffffff"><g transform="translate(38.915625, 59.999994)"><g><path d="M 0.578125 0 L 6.96875 -17.5 L 10.578125 -17.5 L 16.96875 0 L 13.578125 0 L 12.171875 -4.046875 L 5.34375 -4.046875 L 3.921875 0 Z M 6.21875 -6.546875 L 11.296875 -6.546875 L 8.75 -13.828125 Z M 6.21875 -6.546875 "/></g></g></g><g fill="#ffffff"><g transform="translate(56.437845, 59.999994)"><g><path d="M 1.625 0 L 1.625 -12.40625 L 4.46875 -12.40625 L 4.78125 -10.078125 C 5.226562 -10.878906 5.835938 -11.515625 6.609375 -11.984375 C 7.390625 -12.460938 8.300781 -12.703125 9.34375 -12.703125 L 9.34375 -9.328125 L 8.453125 -9.328125 C 7.753906 -9.328125 7.128906 -9.21875 6.578125 -9 C 6.023438 -8.78125 5.59375 -8.40625 5.28125 -7.875 C 4.976562 -7.34375 4.828125 -6.601562 4.828125 -5.65625 L 4.828125 0 Z M 1.625 0 "/></g></g></g><g fill="#ffffff"><g transform="translate(66.111294, 59.999994)"><g><path d="M 7.703125 0.296875 C 6.429688 0.296875 5.3125 0.0234375 4.34375 -0.515625 C 3.382812 -1.066406 2.625 -1.832031 2.0625 -2.8125 C 1.5 -3.800781 1.21875 -4.929688 1.21875 -6.203125 C 1.21875 -7.460938 1.5 -8.582031 2.0625 -9.5625 C 2.625 -10.550781 3.382812 -11.320312 4.34375 -11.875 C 5.3125 -12.425781 6.429688 -12.703125 7.703125 -12.703125 C 9.285156 -12.703125 10.617188 -12.285156 11.703125 -11.453125 C 12.785156 -10.628906 13.476562 -9.492188 13.78125 -8.046875 L 10.40625 -8.046875 C 10.238281 -8.648438 9.90625 -9.117188 9.40625 -9.453125 C 8.914062 -9.796875 8.335938 -9.96875 7.671875 -9.96875 C 6.785156 -9.96875 6.035156 -9.632812 5.421875 -8.96875 C 4.804688 -8.300781 4.5 -7.378906 4.5 -6.203125 C 4.5 -5.015625 4.804688 -4.085938 5.421875 -3.421875 C 6.035156 -2.753906 6.785156 -2.421875 7.671875 -2.421875 C 8.335938 -2.421875 8.914062 -2.585938 9.40625 -2.921875 C 9.90625 -3.253906 10.238281 -3.726562 10.40625 -4.34375 L 13.78125 -4.34375 C 13.476562 -2.945312 12.785156 -1.820312 11.703125 -0.96875 C 10.617188 -0.125 9.285156 0.296875 7.703125 0.296875 Z M 7.703125 0.296875 "/></g></g></g><g fill="#ffffff"><g transform="translate(81.108924, 59.999994)"><g><path d="M 1.03125 -11.34375 L 2.40625 -17.5 L 5.78125 -17.5 L 3.21875 -11.34375 Z M 1.03125 -11.34375 "/></g></g></g><g fill="#ffffff"><g transform="translate(87.707884, 59.999994)"><g><path d="M 7.65625 0.296875 C 6.40625 0.296875 5.296875 0.0273438 4.328125 -0.5 C 3.359375 -1.03125 2.597656 -1.78125 2.046875 -2.75 C 1.492188 -3.71875 1.21875 -4.832031 1.21875 -6.09375 C 1.21875 -7.382812 1.488281 -8.53125 2.03125 -9.53125 C 2.570312 -10.53125 3.320312 -11.304688 4.28125 -11.859375 C 5.238281 -12.421875 6.367188 -12.703125 7.671875 -12.703125 C 8.890625 -12.703125 9.960938 -12.429688 10.890625 -11.890625 C 11.828125 -11.359375 12.554688 -10.628906 13.078125 -9.703125 C 13.609375 -8.785156 13.875 -7.757812 13.875 -6.625 C 13.875 -6.4375 13.867188 -6.242188 13.859375 -6.046875 C 13.847656 -5.847656 13.835938 -5.640625 13.828125 -5.421875 L 4.40625 -5.421875 C 4.46875 -4.453125 4.800781 -3.691406 5.40625 -3.140625 C 6.019531 -2.597656 6.757812 -2.328125 7.625 -2.328125 C 8.269531 -2.328125 8.8125 -2.472656 9.25 -2.765625 C 9.695312 -3.054688 10.03125 -3.4375 10.25 -3.90625 L 13.5 -3.90625 C 13.269531 -3.113281 12.882812 -2.394531 12.34375 -1.75 C 11.800781 -1.113281 11.132812 -0.613281 10.34375 -0.25 C 9.550781 0.113281 8.65625 0.296875 7.65625 0.296875 Z M 7.671875 -10.09375 C 6.890625 -10.09375 6.195312 -9.875 5.59375 -9.4375 C 5 -9 4.617188 -8.328125 4.453125 -7.421875 L 10.625 -7.421875 C 10.570312 -8.242188 10.269531 -8.894531 9.71875 -9.375 C 9.175781 -9.851562 8.492188 -10.09375 7.671875 -10.09375 Z M 7.671875 -10.09375 "/></g></g></g><g fill="#ffffff"><g transform="translate(102.655515, 59.999994)"><g><path d="M 1.625 0 L 1.625 -12.40625 L 4.453125 -12.40625 L 4.71875 -10.71875 C 5.125 -11.320312 5.65625 -11.800781 6.3125 -12.15625 C 6.96875 -12.519531 7.726562 -12.703125 8.59375 -12.703125 C 10.507812 -12.703125 11.867188 -11.957031 12.671875 -10.46875 C 13.117188 -11.15625 13.722656 -11.695312 14.484375 -12.09375 C 15.242188 -12.5 16.070312 -12.703125 16.96875 -12.703125 C 18.59375 -12.703125 19.835938 -12.21875 20.703125 -11.25 C 21.566406 -10.28125 22 -8.863281 22 -7 L 22 0 L 18.796875 0 L 18.796875 -6.703125 C 18.796875 -7.765625 18.59375 -8.578125 18.1875 -9.140625 C 17.78125 -9.710938 17.148438 -10 16.296875 -10 C 15.429688 -10 14.734375 -9.679688 14.203125 -9.046875 C 13.679688 -8.410156 13.421875 -7.53125 13.421875 -6.40625 L 13.421875 0 L 10.21875 0 L 10.21875 -6.703125 C 10.21875 -7.765625 10.007812 -8.578125 9.59375 -9.140625 C 9.175781 -9.710938 8.535156 -10 7.671875 -10 C 6.828125 -10 6.140625 -9.679688 5.609375 -9.046875 C 5.085938 -8.410156 4.828125 -7.53125 4.828125 -6.40625 L 4.828125 0 Z M 1.625 0 "/></g></g></g><g fill="#ffffff"><g transform="translate(123.834368, 34.509483)"><g><path d="M -2.9375 2.578125 C -2.976562 2.578125 -3.117188 2.535156 -3.359375 2.453125 C -3.597656 2.296875 -3.675781 2.054688 -3.59375 1.734375 C -3.519531 1.492188 -3.441406 1.296875 -3.359375 1.140625 C -3.273438 1.054688 -3.191406 0.960938 -3.109375 0.859375 C -3.035156 0.765625 -2.957031 0.675781 -2.875 0.59375 L 2.578125 -5.515625 C 2.859375 -5.796875 3.25 -6.234375 3.75 -6.828125 C 4.25 -7.429688 4.539062 -7.875 4.625 -8.15625 C 4.664062 -8.476562 4.5625 -8.800781 4.3125 -9.125 C 4.195312 -9.28125 4.078125 -9.425781 3.953125 -9.5625 C 3.835938 -9.707031 3.738281 -9.859375 3.65625 -10.015625 C 3.5 -10.335938 3.335938 -10.648438 3.171875 -10.953125 C 3.015625 -11.253906 2.859375 -11.539062 2.703125 -11.8125 C 2.535156 -12.132812 2.382812 -12.457031 2.25 -12.78125 C 2.113281 -13.101562 2.003906 -13.421875 1.921875 -13.734375 C 1.796875 -14.140625 1.753906 -14.460938 1.796875 -14.703125 C 1.796875 -14.859375 1.957031 -15.035156 2.28125 -15.234375 C 2.320312 -15.273438 2.378906 -15.296875 2.453125 -15.296875 C 2.691406 -15.296875 2.851562 -15.195312 2.9375 -15 C 3.175781 -14.601562 3.378906 -14.203125 3.546875 -13.796875 C 3.617188 -13.679688 3.796875 -13.289062 4.078125 -12.625 C 4.359375 -11.96875 4.675781 -11.328125 5.03125 -10.703125 C 5.394531 -10.085938 5.695312 -9.78125 5.9375 -9.78125 C 6.0625 -9.78125 6.222656 -9.878906 6.421875 -10.078125 C 6.703125 -10.359375 6.960938 -10.648438 7.203125 -10.953125 C 7.441406 -11.253906 7.703125 -11.539062 7.984375 -11.8125 C 8.222656 -12.132812 8.460938 -12.445312 8.703125 -12.75 C 8.941406 -13.050781 9.203125 -13.34375 9.484375 -13.625 C 9.554688 -13.695312 9.648438 -13.789062 9.765625 -13.90625 C 9.890625 -14.03125 9.992188 -14.15625 10.078125 -14.28125 C 10.273438 -14.476562 10.515625 -14.640625 10.796875 -14.765625 C 10.878906 -14.765625 10.941406 -14.78125 10.984375 -14.8125 C 11.023438 -14.8125 11.046875 -14.8125 11.046875 -14.8125 C 11.046875 -14.8125 11.0625 -14.8125 11.09375 -14.8125 C 11.257812 -14.8125 11.398438 -14.753906 11.515625 -14.640625 C 11.710938 -14.441406 11.753906 -14.203125 11.640625 -13.921875 C 11.515625 -13.765625 11.390625 -13.613281 11.265625 -13.46875 C 11.148438 -13.332031 11.015625 -13.179688 10.859375 -13.015625 C 10.335938 -12.296875 9.757812 -11.597656 9.125 -10.921875 C 8.84375 -10.554688 8.550781 -10.191406 8.25 -9.828125 C 7.945312 -9.472656 7.65625 -9.117188 7.375 -8.765625 C 7.132812 -8.484375 7.015625 -8.257812 7.015625 -8.09375 C 7.015625 -7.9375 7.132812 -7.695312 7.375 -7.375 C 7.65625 -7.019531 7.9375 -6.671875 8.21875 -6.328125 C 8.5 -5.984375 8.835938 -5.675781 9.234375 -5.40625 C 9.515625 -5.195312 9.796875 -5.023438 10.078125 -4.890625 C 10.359375 -4.753906 10.679688 -4.6875 11.046875 -4.6875 C 11.316406 -4.6875 11.570312 -4.734375 11.8125 -4.828125 C 12.0625 -4.929688 12.285156 -5.0625 12.484375 -5.21875 C 13.203125 -5.613281 13.941406 -6.253906 14.703125 -7.140625 C 15.421875 -7.941406 16.109375 -8.757812 16.765625 -9.59375 C 17.429688 -10.4375 18.082031 -11.300781 18.71875 -12.1875 C 18.875 -12.382812 19.019531 -12.5625 19.15625 -12.71875 C 19.300781 -12.875 19.457031 -13.035156 19.625 -13.203125 C 19.695312 -13.316406 19.796875 -13.375 19.921875 -13.375 C 20.078125 -13.375 20.21875 -13.316406 20.34375 -13.203125 C 20.625 -12.960938 20.722656 -12.742188 20.640625 -12.546875 C 20.597656 -12.460938 20.554688 -12.359375 20.515625 -12.234375 C 20.472656 -12.117188 20.414062 -11.976562 20.34375 -11.8125 C 19.539062 -10.613281 18.695312 -9.453125 17.8125 -8.328125 C 16.9375 -7.210938 15.976562 -6.132812 14.9375 -5.09375 C 14.375 -4.613281 13.773438 -4.164062 13.140625 -3.75 C 12.503906 -3.332031 11.785156 -3.125 10.984375 -3.125 C 10.054688 -3.125 9.15625 -3.441406 8.28125 -4.078125 C 7.882812 -4.398438 7.523438 -4.738281 7.203125 -5.09375 C 6.878906 -5.457031 6.554688 -5.835938 6.234375 -6.234375 C 6.078125 -6.398438 5.921875 -6.484375 5.765625 -6.484375 C 5.640625 -6.484375 5.476562 -6.382812 5.28125 -6.1875 C 4.320312 -5.144531 3.359375 -4.082031 2.390625 -3 C 1.429688 -1.914062 0.472656 -0.835938 -0.484375 0.234375 C -0.597656 0.398438 -0.828125 0.671875 -1.171875 1.046875 C -1.515625 1.429688 -1.851562 1.78125 -2.1875 2.09375 C -2.53125 2.414062 -2.78125 2.578125 -2.9375 2.578125 Z M -2.9375 2.578125 "/></g></g></g></svg>
