<svg xmlns="http://www.w3.org/2000/svg" xmlns:xlink="http://www.w3.org/1999/xlink" width="1080" zoomAndPan="magnify" viewBox="0 0 810 809.999993" height="1080" preserveAspectRatio="xMidYMid meet" version="1.0"><defs><g/><clipPath id="69aa275926"><rect x="0" width="140" y="0" height="414"/></clipPath></defs><rect x="-81" width="972" fill="#ffffff" y="-80.999999" height="971.999992" fill-opacity="1"/><rect x="-81" width="972" fill="#000000" y="-80.999999" height="971.999992" fill-opacity="1"/><g fill="#ffffff" fill-opacity="1"><g transform="translate(221.699978, 473.999996)"><g><path d="M 6.71875 -92.515625 L 27.515625 -142.640625 L 45.234375 -142.640625 L 34.234375 -92.515625 Z M 6.71875 -92.515625 "/></g></g></g><g fill="#ffffff" fill-opacity="1"><g transform="translate(275.496465, 473.999996)"><g><path d="M 62.359375 2.453125 C 52.171875 2.453125 43.132812 0.277344 35.25 -4.0625 C 27.375 -8.414062 21.191406 -14.53125 16.703125 -22.40625 C 12.222656 -30.289062 9.984375 -39.394531 9.984375 -49.71875 C 9.984375 -60.175781 12.191406 -69.484375 16.609375 -77.640625 C 21.023438 -85.796875 27.140625 -92.144531 34.953125 -96.6875 C 42.765625 -101.238281 51.96875 -103.515625 62.5625 -103.515625 C 72.476562 -103.515625 81.238281 -101.34375 88.84375 -97 C 96.457031 -92.65625 102.398438 -86.710938 106.671875 -79.171875 C 110.953125 -71.628906 113.09375 -63.238281 113.09375 -54 C 113.09375 -52.507812 113.054688 -50.945312 112.984375 -49.3125 C 112.921875 -47.6875 112.820312 -45.988281 112.6875 -44.21875 L 35.859375 -44.21875 C 36.410156 -36.34375 39.164062 -30.160156 44.125 -25.671875 C 49.082031 -21.191406 55.09375 -18.953125 62.15625 -18.953125 C 67.445312 -18.953125 71.894531 -20.140625 75.5 -22.515625 C 79.101562 -24.890625 81.785156 -27.984375 83.546875 -31.796875 L 110.046875 -31.796875 C 108.140625 -25.410156 104.976562 -19.597656 100.5625 -14.359375 C 96.144531 -9.128906 90.707031 -5.019531 84.25 -2.03125 C 77.800781 0.957031 70.503906 2.453125 62.359375 2.453125 Z M 62.5625 -82.328125 C 56.175781 -82.328125 50.535156 -80.523438 45.640625 -76.921875 C 40.753906 -73.328125 37.628906 -67.859375 36.265625 -60.515625 L 86.609375 -60.515625 C 86.203125 -67.179688 83.753906 -72.484375 79.265625 -76.421875 C 74.785156 -80.359375 69.21875 -82.328125 62.5625 -82.328125 Z M 62.5625 -82.328125 "/></g></g></g><g fill="#ffffff" fill-opacity="1"><g transform="translate(397.353732, 473.999996)"><g><path d="M 13.25 0 L 13.25 -101.078125 L 36.265625 -101.078125 L 38.515625 -87.421875 C 41.773438 -92.316406 46.085938 -96.222656 51.453125 -99.140625 C 56.816406 -102.054688 63.03125 -103.515625 70.09375 -103.515625 C 85.71875 -103.515625 96.789062 -97.472656 103.3125 -85.390625 C 106.976562 -90.953125 111.898438 -95.363281 118.078125 -98.625 C 124.265625 -101.882812 131.03125 -103.515625 138.375 -103.515625 C 151.550781 -103.515625 161.671875 -99.570312 168.734375 -91.6875 C 175.796875 -83.8125 179.328125 -72.269531 179.328125 -57.0625 L 179.328125 0 L 153.25 0 L 153.25 -54.609375 C 153.25 -63.304688 151.582031 -69.960938 148.25 -74.578125 C 144.925781 -79.203125 139.796875 -81.515625 132.859375 -81.515625 C 125.796875 -81.515625 120.125 -78.929688 115.84375 -73.765625 C 111.570312 -68.609375 109.4375 -61.410156 109.4375 -52.171875 L 109.4375 0 L 83.34375 0 L 83.34375 -54.609375 C 83.34375 -63.304688 81.644531 -69.960938 78.25 -74.578125 C 74.851562 -79.203125 69.625 -81.515625 62.5625 -81.515625 C 55.632812 -81.515625 50.03125 -78.929688 45.75 -73.765625 C 41.46875 -68.609375 39.328125 -61.410156 39.328125 -52.171875 L 39.328125 0 Z M 13.25 0 "/></g></g></g><g transform="matrix(1, 0, 0, 1, 530, 19)"><g clip-path="url(#69aa275926)"><g fill="#ffffff" fill-opacity="1"><g transform="translate(22.675386, 278.886436)"><g><path d="M -16.234375 14.25 C -16.453125 14.25 -17.222656 14.023438 -18.546875 13.578125 C -19.867188 12.691406 -20.3125 11.367188 -19.875 9.609375 C -19.425781 8.285156 -18.984375 7.179688 -18.546875 6.296875 C -18.109375 5.847656 -17.664062 5.347656 -17.21875 4.796875 C -16.78125 4.242188 -16.34375 3.75 -15.90625 3.3125 L 14.25 -30.46875 C 15.789062 -32.019531 17.941406 -34.453125 20.703125 -37.765625 C 23.460938 -41.078125 25.0625 -43.503906 25.5 -45.046875 C 25.71875 -46.816406 25.164062 -48.582031 23.84375 -50.34375 C 23.1875 -51.226562 22.523438 -52.054688 21.859375 -52.828125 C 21.191406 -53.597656 20.640625 -54.425781 20.203125 -55.3125 C 19.316406 -57.082031 18.429688 -58.796875 17.546875 -60.453125 C 16.671875 -62.109375 15.789062 -63.707031 14.90625 -65.25 C 14.019531 -67.019531 13.191406 -68.785156 12.421875 -70.546875 C 11.648438 -72.316406 11.039062 -74.082031 10.59375 -75.84375 C 9.9375 -78.050781 9.71875 -79.820312 9.9375 -81.15625 C 9.9375 -82.03125 10.820312 -83.019531 12.59375 -84.125 C 12.8125 -84.34375 13.140625 -84.453125 13.578125 -84.453125 C 14.898438 -84.453125 15.785156 -83.898438 16.234375 -82.796875 C 17.554688 -80.597656 18.660156 -78.394531 19.546875 -76.1875 C 19.984375 -75.519531 20.972656 -73.363281 22.515625 -69.71875 C 24.066406 -66.070312 25.832031 -62.535156 27.8125 -59.109375 C 29.800781 -55.691406 31.460938 -53.984375 32.796875 -53.984375 C 33.453125 -53.984375 34.332031 -54.535156 35.4375 -55.640625 C 36.988281 -57.191406 38.425781 -58.796875 39.75 -60.453125 C 41.070312 -62.109375 42.503906 -63.707031 44.046875 -65.25 C 45.378906 -67.019531 46.707031 -68.734375 48.03125 -70.390625 C 49.351562 -72.046875 50.785156 -73.644531 52.328125 -75.1875 C 52.773438 -75.625 53.328125 -76.175781 53.984375 -76.84375 C 54.648438 -77.507812 55.203125 -78.171875 55.640625 -78.828125 C 56.742188 -79.929688 58.070312 -80.816406 59.625 -81.484375 C 60.0625 -81.484375 60.390625 -81.59375 60.609375 -81.8125 C 60.828125 -81.8125 60.9375 -81.8125 60.9375 -81.8125 C 60.9375 -81.8125 61.050781 -81.8125 61.28125 -81.8125 C 62.15625 -81.8125 62.925781 -81.476562 63.59375 -80.8125 C 64.695312 -79.707031 64.914062 -78.382812 64.25 -76.84375 C 63.59375 -75.957031 62.929688 -75.128906 62.265625 -74.359375 C 61.609375 -73.585938 60.835938 -72.757812 59.953125 -71.875 C 57.078125 -67.894531 53.875 -64.03125 50.34375 -60.28125 C 48.800781 -58.289062 47.203125 -56.300781 45.546875 -54.3125 C 43.890625 -52.332031 42.285156 -50.347656 40.734375 -48.359375 C 39.410156 -46.816406 38.75 -45.601562 38.75 -44.71875 C 38.75 -43.832031 39.410156 -42.503906 40.734375 -40.734375 C 42.285156 -38.753906 43.832031 -36.820312 45.375 -34.9375 C 46.925781 -33.0625 48.800781 -31.351562 51 -29.8125 C 52.550781 -28.707031 54.097656 -27.765625 55.640625 -26.984375 C 57.191406 -26.210938 58.957031 -25.828125 60.9375 -25.828125 C 62.488281 -25.828125 63.925781 -26.101562 65.25 -26.65625 C 66.570312 -27.207031 67.785156 -27.925781 68.890625 -28.8125 C 72.867188 -31.019531 76.957031 -34.554688 81.15625 -39.421875 C 85.125 -43.835938 88.929688 -48.363281 92.578125 -53 C 96.222656 -57.632812 99.8125 -62.378906 103.34375 -67.234375 C 104.226562 -68.335938 105.054688 -69.332031 105.828125 -70.21875 C 106.597656 -71.101562 107.425781 -71.988281 108.3125 -72.875 C 108.75 -73.53125 109.300781 -73.859375 109.96875 -73.859375 C 110.851562 -73.859375 111.625 -73.53125 112.28125 -72.875 C 113.832031 -71.539062 114.382812 -70.320312 113.9375 -69.21875 C 113.71875 -68.78125 113.5 -68.226562 113.28125 -67.5625 C 113.0625 -66.90625 112.726562 -66.132812 112.28125 -65.25 C 107.863281 -58.625 103.222656 -52.21875 98.359375 -46.03125 C 93.503906 -39.851562 88.207031 -33.894531 82.46875 -28.15625 C 79.382812 -25.5 76.070312 -23.007812 72.53125 -20.6875 C 69 -18.375 65.023438 -17.21875 60.609375 -17.21875 C 55.535156 -17.21875 50.566406 -18.984375 45.703125 -22.515625 C 43.492188 -24.285156 41.503906 -26.164062 39.734375 -28.15625 C 37.972656 -30.144531 36.210938 -32.242188 34.453125 -34.453125 C 33.566406 -35.328125 32.679688 -35.765625 31.796875 -35.765625 C 31.128906 -35.765625 30.242188 -35.210938 29.140625 -34.109375 C 23.847656 -28.367188 18.550781 -22.519531 13.25 -16.5625 C 7.945312 -10.601562 2.644531 -4.640625 -2.65625 1.328125 C -3.3125 2.210938 -4.578125 3.703125 -6.453125 5.796875 C -8.335938 7.890625 -10.21875 9.820312 -12.09375 11.59375 C -13.96875 13.363281 -15.347656 14.25 -16.234375 14.25 Z M -16.234375 14.25 "/></g></g></g></g></g></svg>